<svg xmlns="http://www.w3.org/2000/svg" viewBox="0 0 100 100">
  <defs>
    <!-- Gradient for the logo mark -->
    <linearGradient id="iconGradient" x1="0%" y1="0%" x2="100%" y2="100%">
      <stop offset="0%" style="stop-color:#0ea5e9"/>
      <stop offset="50%" style="stop-color:#8b5cf6"/>
      <stop offset="100%" style="stop-color:#d946ef"/>
    </linearGradient>
    
    <!-- Glow effect -->
    <filter id="iconGlow" x="-20%" y="-20%" width="140%" height="140%">
      <feGaussianBlur stdDeviation="2" result="coloredBlur"/>
      <feMerge>
        <feMergeNode in="coloredBlur"/>
        <feMergeNode in="SourceGraphic"/>
      </feMerge>
    </filter>
  </defs>
  
  <!-- Logo Mark - Stylized "A" with neural network nodes -->
  <g transform="translate(10, 5)">
    <!-- Main "A" shape -->
    <path d="M40 90 L15 90 L40 5 L60 5 L85 90 L60 90 L55 72 L45 72 L40 90 Z M47 55 L53 55 L50 38 L47 55 Z" 
          fill="url(#iconGradient)" filter="url(#iconGlow)"/>
    
    <!-- Neural network nodes -->
    <circle cx="50" cy="18" r="5" fill="#0ea5e9"/>
    <circle cx="28" cy="55" r="4" fill="#8b5cf6"/>
    <circle cx="72" cy="55" r="4" fill="#8b5cf6"/>
    <circle cx="20" cy="85" r="4" fill="#d946ef"/>
    <circle cx="80" cy="85" r="4" fill="#d946ef"/>
    
    <!-- Connection lines -->
    <line x1="50" y1="18" x2="28" y2="55" stroke="#0ea5e9" stroke-width="2" opacity="0.6"/>
    <line x1="50" y1="18" x2="72" y2="55" stroke="#0ea5e9" stroke-width="2" opacity="0.6"/>
    <line x1="28" y1="55" x2="20" y2="85" stroke="#8b5cf6" stroke-width="2" opacity="0.6"/>
    <line x1="72" y1="55" x2="80" y2="85" stroke="#8b5cf6" stroke-width="2" opacity="0.6"/>
    <line x1="28" y1="55" x2="72" y2="55" stroke="#8b5cf6" stroke-width="1.5" opacity="0.4"/>
  </g>
</svg>